<svg width="50" height="50" viewBox="0 0 50 50" fill="none" xmlns="http://www.w3.org/2000/svg">
<rect width="50" height="50" fill="#296692"/>
<path d="M33.7012 23.6836C33.7012 26.625 33.0332 28.9746 31.6973 30.7324C30.3613 32.4785 28.5684 33.3516 26.3184 33.3516C24.2324 33.3516 22.5625 32.666 21.3086 31.2949V40.3125H17.0371V13.9805H20.9746L21.1504 15.9141C22.4043 14.3906 24.1094 13.6289 26.2656 13.6289C28.5859 13.6289 30.4023 14.4961 31.7148 16.2305C33.0391 17.9531 33.7012 20.3496 33.7012 23.4199V23.6836ZM29.4473 23.3145C29.4473 21.416 29.0664 19.9102 28.3047 18.7969C27.5547 17.6836 26.4766 17.127 25.0703 17.127C23.3242 17.127 22.0703 17.8477 21.3086 19.2891V27.7266C22.082 29.2031 23.3477 29.9414 25.1055 29.9414C26.4648 29.9414 27.5254 29.3965 28.2871 28.3066C29.0605 27.2051 29.4473 25.541 29.4473 23.3145Z" fill="white"/>
</svg>
